<svg width="1285" height="673" viewBox="0 0 1285 673" fill="none" xmlns="http://www.w3.org/2000/svg">
<path d="M1133.85 652.162L558.388 651.792C558.388 651.792 516.248 651.662 501.718 653.702C475.718 657.332 454.468 663.322 443.478 643.072C416.218 592.922 381.218 665.572 338.968 665.322C271.658 667.652 251.108 666.322 201.718 637.662C145.858 605.252 137.458 518.722 137.458 518.722L108.458 315.122C105.898 300.882 84.558 300.882 81.058 292.522C68.677 263.172 14.777 112.632 14.777 112.632C14.777 112.632 -0.0229733 80.0524 9.62703 54.4404C19.277 28.8364 41.847 23.2664 60.117 19.5364C64.117 18.6964 119.118 11.3664 138.638 9.08641C142.248 8.66641 178.208 -1.24359 204.048 19.5364C228.228 38.8704 292.118 188.322 333.098 230.632C377.788 276.762 598.428 462.892 598.428 462.892C598.428 462.892 617.048 478.892 641.748 471.412C671.748 462.292 676.748 485.412 693.748 494.102C703.548 499.172 730.748 497.872 730.748 497.872H1211.44C1211.44 497.872 1238.44 496.642 1257.99 508.302C1270.55 515.269 1278.15 528.693 1277.66 543.052C1277.66 585.942 1247.29 607.682 1216.12 626.842C1180.58 648.782 1133.85 652.162 1133.85 652.162Z" stroke="#455159" stroke-width="12.72" stroke-linecap="round" stroke-linejoin="round"/>
</svg>
